<?xml version="1.0" encoding="utf-8"?>
<!-- Generator: Adobe Illustrator 17.1.0, SVG Export Plug-In . SVG Version: 6.00 Build 0)  -->
<!DOCTYPE svg PUBLIC "-//W3C//DTD SVG 1.1//EN" "http://www.w3.org/Graphics/SVG/1.1/DTD/svg11.dtd">
<svg version="1.1" id="Layer_1" xmlns="http://www.w3.org/2000/svg" xmlns:xlink="http://www.w3.org/1999/xlink" x="0px" y="0px"
	 viewBox="0 0 612 319" style="enable-background:new 0 0 612 319;" xml:space="preserve">
<g>
	<path fill="#FFFFFF" d="M192.1,243.9c-14.9,24.6-41.9,40.9-72.8,40.9c-41.2,0-75.6-29.3-83.6-68.1h130.3v-0.1h65.8c0.9-5.6,1.3-11.2,1.3-17.1
		c0-62.8-51-113.8-113.8-113.8S5.5,136.7,5.5,199.5s51,113.8,113.8,113.8c47.1,0,87.5-28.6,104.9-69.5h-32V243.9z M119.2,114.3
		c43.7,0,79.6,32.8,84.8,75.1H34.6C39.5,147.1,75.6,114.3,119.2,114.3z"/>
	<path fill="#FFFFFF" d="M562.7,243.9c-14.9,24.6-41.9,40.9-72.8,40.9c-41.2,0-75.6-29.3-83.6-68.1h130.3v-0.1h65.8c0.9-5.6,1.3-11.2,1.3-17.1
		c0-62.8-51-113.8-113.8-113.8s-113.8,51-113.8,113.8s51,113.8,113.8,113.8c47.1,0,87.5-28.6,104.9-69.5h-32V243.9z M489.9,114.3
		c43.7,0,79.6,32.8,84.8,75.1H405.1C410.2,147.1,446.2,114.3,489.9,114.3z"/>
	<rect fill="#FFFFFF" x="245.4" y="6" width="28" height="302.7"/>
	<rect fill="#FFFFFF" x="289.8" y="5.6" width="27.6" height="59.2"/>
	<rect fill="#FFFFFF" x="289.8" y="91.3" width="27" height="217.5"/>
	<polygon fill="#FFFFFF" points="390.8,64.8 361.9,64.8 361.9,6.4 333.4,6.4 333.4,308.7 361.9,308.7 361.9,91.3 390.8,91.3 	"/>
</g>
</svg>
